<?xml version="1.0" encoding="UTF-8"?>
<svg xmlns="http://www.w3.org/2000/svg" xmlns:xlink="http://www.w3.org/1999/xlink" version="1.1" width="150px" height="150px" viewBox="0 0 150 150"><defs><rect id="r0" width="4" height="4" fill="#000000"/></defs><rect x="0" y="0" width="150" height="150" fill="#fefefe"/><use x="17" y="17" xlink:href="#r0"/><use x="21" y="17" xlink:href="#r0"/><use x="25" y="17" xlink:href="#r0"/><use x="29" y="17" xlink:href="#r0"/><use x="33" y="17" xlink:href="#r0"/><use x="37" y="17" xlink:href="#r0"/><use x="41" y="17" xlink:href="#r0"/><use x="57" y="17" xlink:href="#r0"/><use x="65" y="17" xlink:href="#r0"/><use x="69" y="17" xlink:href="#r0"/><use x="85" y="17" xlink:href="#r0"/><use x="89" y="17" xlink:href="#r0"/><use x="93" y="17" xlink:href="#r0"/><use x="105" y="17" xlink:href="#r0"/><use x="109" y="17" xlink:href="#r0"/><use x="113" y="17" xlink:href="#r0"/><use x="117" y="17" xlink:href="#r0"/><use x="121" y="17" xlink:href="#r0"/><use x="125" y="17" xlink:href="#r0"/><use x="129" y="17" xlink:href="#r0"/><use x="17" y="21" xlink:href="#r0"/><use x="41" y="21" xlink:href="#r0"/><use x="49" y="21" xlink:href="#r0"/><use x="57" y="21" xlink:href="#r0"/><use x="69" y="21" xlink:href="#r0"/><use x="73" y="21" xlink:href="#r0"/><use x="77" y="21" xlink:href="#r0"/><use x="85" y="21" xlink:href="#r0"/><use x="97" y="21" xlink:href="#r0"/><use x="105" y="21" xlink:href="#r0"/><use x="129" y="21" xlink:href="#r0"/><use x="17" y="25" xlink:href="#r0"/><use x="25" y="25" xlink:href="#r0"/><use x="29" y="25" xlink:href="#r0"/><use x="33" y="25" xlink:href="#r0"/><use x="41" y="25" xlink:href="#r0"/><use x="65" y="25" xlink:href="#r0"/><use x="73" y="25" xlink:href="#r0"/><use x="97" y="25" xlink:href="#r0"/><use x="105" y="25" xlink:href="#r0"/><use x="113" y="25" xlink:href="#r0"/><use x="117" y="25" xlink:href="#r0"/><use x="121" y="25" xlink:href="#r0"/><use x="129" y="25" xlink:href="#r0"/><use x="17" y="29" xlink:href="#r0"/><use x="25" y="29" xlink:href="#r0"/><use x="29" y="29" xlink:href="#r0"/><use x="33" y="29" xlink:href="#r0"/><use x="41" y="29" xlink:href="#r0"/><use x="49" y="29" xlink:href="#r0"/><use x="53" y="29" xlink:href="#r0"/><use x="57" y="29" xlink:href="#r0"/><use x="65" y="29" xlink:href="#r0"/><use x="69" y="29" xlink:href="#r0"/><use x="73" y="29" xlink:href="#r0"/><use x="77" y="29" xlink:href="#r0"/><use x="81" y="29" xlink:href="#r0"/><use x="85" y="29" xlink:href="#r0"/><use x="93" y="29" xlink:href="#r0"/><use x="105" y="29" xlink:href="#r0"/><use x="113" y="29" xlink:href="#r0"/><use x="117" y="29" xlink:href="#r0"/><use x="121" y="29" xlink:href="#r0"/><use x="129" y="29" xlink:href="#r0"/><use x="17" y="33" xlink:href="#r0"/><use x="25" y="33" xlink:href="#r0"/><use x="29" y="33" xlink:href="#r0"/><use x="33" y="33" xlink:href="#r0"/><use x="41" y="33" xlink:href="#r0"/><use x="53" y="33" xlink:href="#r0"/><use x="69" y="33" xlink:href="#r0"/><use x="81" y="33" xlink:href="#r0"/><use x="89" y="33" xlink:href="#r0"/><use x="93" y="33" xlink:href="#r0"/><use x="97" y="33" xlink:href="#r0"/><use x="105" y="33" xlink:href="#r0"/><use x="113" y="33" xlink:href="#r0"/><use x="117" y="33" xlink:href="#r0"/><use x="121" y="33" xlink:href="#r0"/><use x="129" y="33" xlink:href="#r0"/><use x="17" y="37" xlink:href="#r0"/><use x="41" y="37" xlink:href="#r0"/><use x="49" y="37" xlink:href="#r0"/><use x="53" y="37" xlink:href="#r0"/><use x="61" y="37" xlink:href="#r0"/><use x="65" y="37" xlink:href="#r0"/><use x="77" y="37" xlink:href="#r0"/><use x="81" y="37" xlink:href="#r0"/><use x="97" y="37" xlink:href="#r0"/><use x="105" y="37" xlink:href="#r0"/><use x="129" y="37" xlink:href="#r0"/><use x="17" y="41" xlink:href="#r0"/><use x="21" y="41" xlink:href="#r0"/><use x="25" y="41" xlink:href="#r0"/><use x="29" y="41" xlink:href="#r0"/><use x="33" y="41" xlink:href="#r0"/><use x="37" y="41" xlink:href="#r0"/><use x="41" y="41" xlink:href="#r0"/><use x="49" y="41" xlink:href="#r0"/><use x="57" y="41" xlink:href="#r0"/><use x="65" y="41" xlink:href="#r0"/><use x="73" y="41" xlink:href="#r0"/><use x="81" y="41" xlink:href="#r0"/><use x="89" y="41" xlink:href="#r0"/><use x="97" y="41" xlink:href="#r0"/><use x="105" y="41" xlink:href="#r0"/><use x="109" y="41" xlink:href="#r0"/><use x="113" y="41" xlink:href="#r0"/><use x="117" y="41" xlink:href="#r0"/><use x="121" y="41" xlink:href="#r0"/><use x="125" y="41" xlink:href="#r0"/><use x="129" y="41" xlink:href="#r0"/><use x="53" y="45" xlink:href="#r0"/><use x="57" y="45" xlink:href="#r0"/><use x="61" y="45" xlink:href="#r0"/><use x="73" y="45" xlink:href="#r0"/><use x="77" y="45" xlink:href="#r0"/><use x="81" y="45" xlink:href="#r0"/><use x="93" y="45" xlink:href="#r0"/><use x="97" y="45" xlink:href="#r0"/><use x="17" y="49" xlink:href="#r0"/><use x="21" y="49" xlink:href="#r0"/><use x="25" y="49" xlink:href="#r0"/><use x="29" y="49" xlink:href="#r0"/><use x="33" y="49" xlink:href="#r0"/><use x="41" y="49" xlink:href="#r0"/><use x="45" y="49" xlink:href="#r0"/><use x="49" y="49" xlink:href="#r0"/><use x="53" y="49" xlink:href="#r0"/><use x="61" y="49" xlink:href="#r0"/><use x="69" y="49" xlink:href="#r0"/><use x="73" y="49" xlink:href="#r0"/><use x="77" y="49" xlink:href="#r0"/><use x="85" y="49" xlink:href="#r0"/><use x="93" y="49" xlink:href="#r0"/><use x="101" y="49" xlink:href="#r0"/><use x="109" y="49" xlink:href="#r0"/><use x="117" y="49" xlink:href="#r0"/><use x="125" y="49" xlink:href="#r0"/><use x="17" y="53" xlink:href="#r0"/><use x="25" y="53" xlink:href="#r0"/><use x="29" y="53" xlink:href="#r0"/><use x="33" y="53" xlink:href="#r0"/><use x="57" y="53" xlink:href="#r0"/><use x="65" y="53" xlink:href="#r0"/><use x="69" y="53" xlink:href="#r0"/><use x="81" y="53" xlink:href="#r0"/><use x="93" y="53" xlink:href="#r0"/><use x="97" y="53" xlink:href="#r0"/><use x="105" y="53" xlink:href="#r0"/><use x="109" y="53" xlink:href="#r0"/><use x="113" y="53" xlink:href="#r0"/><use x="129" y="53" xlink:href="#r0"/><use x="29" y="57" xlink:href="#r0"/><use x="33" y="57" xlink:href="#r0"/><use x="41" y="57" xlink:href="#r0"/><use x="57" y="57" xlink:href="#r0"/><use x="69" y="57" xlink:href="#r0"/><use x="73" y="57" xlink:href="#r0"/><use x="77" y="57" xlink:href="#r0"/><use x="81" y="57" xlink:href="#r0"/><use x="85" y="57" xlink:href="#r0"/><use x="97" y="57" xlink:href="#r0"/><use x="109" y="57" xlink:href="#r0"/><use x="113" y="57" xlink:href="#r0"/><use x="45" y="61" xlink:href="#r0"/><use x="49" y="61" xlink:href="#r0"/><use x="65" y="61" xlink:href="#r0"/><use x="81" y="61" xlink:href="#r0"/><use x="89" y="61" xlink:href="#r0"/><use x="93" y="61" xlink:href="#r0"/><use x="101" y="61" xlink:href="#r0"/><use x="105" y="61" xlink:href="#r0"/><use x="125" y="61" xlink:href="#r0"/><use x="17" y="65" xlink:href="#r0"/><use x="25" y="65" xlink:href="#r0"/><use x="33" y="65" xlink:href="#r0"/><use x="41" y="65" xlink:href="#r0"/><use x="53" y="65" xlink:href="#r0"/><use x="57" y="65" xlink:href="#r0"/><use x="65" y="65" xlink:href="#r0"/><use x="69" y="65" xlink:href="#r0"/><use x="73" y="65" xlink:href="#r0"/><use x="77" y="65" xlink:href="#r0"/><use x="85" y="65" xlink:href="#r0"/><use x="117" y="65" xlink:href="#r0"/><use x="121" y="65" xlink:href="#r0"/><use x="25" y="69" xlink:href="#r0"/><use x="37" y="69" xlink:href="#r0"/><use x="53" y="69" xlink:href="#r0"/><use x="73" y="69" xlink:href="#r0"/><use x="81" y="69" xlink:href="#r0"/><use x="89" y="69" xlink:href="#r0"/><use x="93" y="69" xlink:href="#r0"/><use x="97" y="69" xlink:href="#r0"/><use x="101" y="69" xlink:href="#r0"/><use x="105" y="69" xlink:href="#r0"/><use x="109" y="69" xlink:href="#r0"/><use x="113" y="69" xlink:href="#r0"/><use x="121" y="69" xlink:href="#r0"/><use x="129" y="69" xlink:href="#r0"/><use x="29" y="73" xlink:href="#r0"/><use x="37" y="73" xlink:href="#r0"/><use x="41" y="73" xlink:href="#r0"/><use x="45" y="73" xlink:href="#r0"/><use x="49" y="73" xlink:href="#r0"/><use x="57" y="73" xlink:href="#r0"/><use x="61" y="73" xlink:href="#r0"/><use x="65" y="73" xlink:href="#r0"/><use x="69" y="73" xlink:href="#r0"/><use x="73" y="73" xlink:href="#r0"/><use x="77" y="73" xlink:href="#r0"/><use x="81" y="73" xlink:href="#r0"/><use x="101" y="73" xlink:href="#r0"/><use x="121" y="73" xlink:href="#r0"/><use x="25" y="77" xlink:href="#r0"/><use x="29" y="77" xlink:href="#r0"/><use x="37" y="77" xlink:href="#r0"/><use x="57" y="77" xlink:href="#r0"/><use x="61" y="77" xlink:href="#r0"/><use x="77" y="77" xlink:href="#r0"/><use x="93" y="77" xlink:href="#r0"/><use x="97" y="77" xlink:href="#r0"/><use x="109" y="77" xlink:href="#r0"/><use x="125" y="77" xlink:href="#r0"/><use x="17" y="81" xlink:href="#r0"/><use x="29" y="81" xlink:href="#r0"/><use x="33" y="81" xlink:href="#r0"/><use x="37" y="81" xlink:href="#r0"/><use x="41" y="81" xlink:href="#r0"/><use x="49" y="81" xlink:href="#r0"/><use x="53" y="81" xlink:href="#r0"/><use x="61" y="81" xlink:href="#r0"/><use x="65" y="81" xlink:href="#r0"/><use x="69" y="81" xlink:href="#r0"/><use x="73" y="81" xlink:href="#r0"/><use x="77" y="81" xlink:href="#r0"/><use x="85" y="81" xlink:href="#r0"/><use x="93" y="81" xlink:href="#r0"/><use x="121" y="81" xlink:href="#r0"/><use x="17" y="85" xlink:href="#r0"/><use x="29" y="85" xlink:href="#r0"/><use x="33" y="85" xlink:href="#r0"/><use x="37" y="85" xlink:href="#r0"/><use x="45" y="85" xlink:href="#r0"/><use x="53" y="85" xlink:href="#r0"/><use x="57" y="85" xlink:href="#r0"/><use x="65" y="85" xlink:href="#r0"/><use x="69" y="85" xlink:href="#r0"/><use x="81" y="85" xlink:href="#r0"/><use x="85" y="85" xlink:href="#r0"/><use x="89" y="85" xlink:href="#r0"/><use x="93" y="85" xlink:href="#r0"/><use x="101" y="85" xlink:href="#r0"/><use x="105" y="85" xlink:href="#r0"/><use x="109" y="85" xlink:href="#r0"/><use x="113" y="85" xlink:href="#r0"/><use x="117" y="85" xlink:href="#r0"/><use x="121" y="85" xlink:href="#r0"/><use x="129" y="85" xlink:href="#r0"/><use x="17" y="89" xlink:href="#r0"/><use x="33" y="89" xlink:href="#r0"/><use x="41" y="89" xlink:href="#r0"/><use x="49" y="89" xlink:href="#r0"/><use x="53" y="89" xlink:href="#r0"/><use x="57" y="89" xlink:href="#r0"/><use x="69" y="89" xlink:href="#r0"/><use x="73" y="89" xlink:href="#r0"/><use x="77" y="89" xlink:href="#r0"/><use x="85" y="89" xlink:href="#r0"/><use x="105" y="89" xlink:href="#r0"/><use x="117" y="89" xlink:href="#r0"/><use x="121" y="89" xlink:href="#r0"/><use x="17" y="93" xlink:href="#r0"/><use x="25" y="93" xlink:href="#r0"/><use x="37" y="93" xlink:href="#r0"/><use x="45" y="93" xlink:href="#r0"/><use x="61" y="93" xlink:href="#r0"/><use x="73" y="93" xlink:href="#r0"/><use x="81" y="93" xlink:href="#r0"/><use x="89" y="93" xlink:href="#r0"/><use x="97" y="93" xlink:href="#r0"/><use x="101" y="93" xlink:href="#r0"/><use x="113" y="93" xlink:href="#r0"/><use x="125" y="93" xlink:href="#r0"/><use x="17" y="97" xlink:href="#r0"/><use x="25" y="97" xlink:href="#r0"/><use x="29" y="97" xlink:href="#r0"/><use x="33" y="97" xlink:href="#r0"/><use x="37" y="97" xlink:href="#r0"/><use x="41" y="97" xlink:href="#r0"/><use x="45" y="97" xlink:href="#r0"/><use x="49" y="97" xlink:href="#r0"/><use x="57" y="97" xlink:href="#r0"/><use x="69" y="97" xlink:href="#r0"/><use x="73" y="97" xlink:href="#r0"/><use x="85" y="97" xlink:href="#r0"/><use x="97" y="97" xlink:href="#r0"/><use x="101" y="97" xlink:href="#r0"/><use x="105" y="97" xlink:href="#r0"/><use x="109" y="97" xlink:href="#r0"/><use x="113" y="97" xlink:href="#r0"/><use x="121" y="97" xlink:href="#r0"/><use x="125" y="97" xlink:href="#r0"/><use x="129" y="97" xlink:href="#r0"/><use x="49" y="101" xlink:href="#r0"/><use x="53" y="101" xlink:href="#r0"/><use x="57" y="101" xlink:href="#r0"/><use x="61" y="101" xlink:href="#r0"/><use x="65" y="101" xlink:href="#r0"/><use x="69" y="101" xlink:href="#r0"/><use x="81" y="101" xlink:href="#r0"/><use x="93" y="101" xlink:href="#r0"/><use x="97" y="101" xlink:href="#r0"/><use x="113" y="101" xlink:href="#r0"/><use x="117" y="101" xlink:href="#r0"/><use x="121" y="101" xlink:href="#r0"/><use x="125" y="101" xlink:href="#r0"/><use x="129" y="101" xlink:href="#r0"/><use x="17" y="105" xlink:href="#r0"/><use x="21" y="105" xlink:href="#r0"/><use x="25" y="105" xlink:href="#r0"/><use x="29" y="105" xlink:href="#r0"/><use x="33" y="105" xlink:href="#r0"/><use x="37" y="105" xlink:href="#r0"/><use x="41" y="105" xlink:href="#r0"/><use x="49" y="105" xlink:href="#r0"/><use x="77" y="105" xlink:href="#r0"/><use x="81" y="105" xlink:href="#r0"/><use x="93" y="105" xlink:href="#r0"/><use x="97" y="105" xlink:href="#r0"/><use x="105" y="105" xlink:href="#r0"/><use x="113" y="105" xlink:href="#r0"/><use x="117" y="105" xlink:href="#r0"/><use x="121" y="105" xlink:href="#r0"/><use x="17" y="109" xlink:href="#r0"/><use x="41" y="109" xlink:href="#r0"/><use x="53" y="109" xlink:href="#r0"/><use x="61" y="109" xlink:href="#r0"/><use x="73" y="109" xlink:href="#r0"/><use x="77" y="109" xlink:href="#r0"/><use x="89" y="109" xlink:href="#r0"/><use x="93" y="109" xlink:href="#r0"/><use x="97" y="109" xlink:href="#r0"/><use x="113" y="109" xlink:href="#r0"/><use x="117" y="109" xlink:href="#r0"/><use x="125" y="109" xlink:href="#r0"/><use x="129" y="109" xlink:href="#r0"/><use x="17" y="113" xlink:href="#r0"/><use x="25" y="113" xlink:href="#r0"/><use x="29" y="113" xlink:href="#r0"/><use x="33" y="113" xlink:href="#r0"/><use x="41" y="113" xlink:href="#r0"/><use x="49" y="113" xlink:href="#r0"/><use x="53" y="113" xlink:href="#r0"/><use x="57" y="113" xlink:href="#r0"/><use x="61" y="113" xlink:href="#r0"/><use x="65" y="113" xlink:href="#r0"/><use x="69" y="113" xlink:href="#r0"/><use x="73" y="113" xlink:href="#r0"/><use x="77" y="113" xlink:href="#r0"/><use x="85" y="113" xlink:href="#r0"/><use x="89" y="113" xlink:href="#r0"/><use x="97" y="113" xlink:href="#r0"/><use x="101" y="113" xlink:href="#r0"/><use x="105" y="113" xlink:href="#r0"/><use x="109" y="113" xlink:href="#r0"/><use x="113" y="113" xlink:href="#r0"/><use x="121" y="113" xlink:href="#r0"/><use x="129" y="113" xlink:href="#r0"/><use x="17" y="117" xlink:href="#r0"/><use x="25" y="117" xlink:href="#r0"/><use x="29" y="117" xlink:href="#r0"/><use x="33" y="117" xlink:href="#r0"/><use x="41" y="117" xlink:href="#r0"/><use x="49" y="117" xlink:href="#r0"/><use x="57" y="117" xlink:href="#r0"/><use x="61" y="117" xlink:href="#r0"/><use x="65" y="117" xlink:href="#r0"/><use x="81" y="117" xlink:href="#r0"/><use x="85" y="117" xlink:href="#r0"/><use x="89" y="117" xlink:href="#r0"/><use x="93" y="117" xlink:href="#r0"/><use x="97" y="117" xlink:href="#r0"/><use x="109" y="117" xlink:href="#r0"/><use x="125" y="117" xlink:href="#r0"/><use x="129" y="117" xlink:href="#r0"/><use x="17" y="121" xlink:href="#r0"/><use x="25" y="121" xlink:href="#r0"/><use x="29" y="121" xlink:href="#r0"/><use x="33" y="121" xlink:href="#r0"/><use x="41" y="121" xlink:href="#r0"/><use x="49" y="121" xlink:href="#r0"/><use x="57" y="121" xlink:href="#r0"/><use x="69" y="121" xlink:href="#r0"/><use x="77" y="121" xlink:href="#r0"/><use x="81" y="121" xlink:href="#r0"/><use x="101" y="121" xlink:href="#r0"/><use x="105" y="121" xlink:href="#r0"/><use x="109" y="121" xlink:href="#r0"/><use x="113" y="121" xlink:href="#r0"/><use x="117" y="121" xlink:href="#r0"/><use x="121" y="121" xlink:href="#r0"/><use x="125" y="121" xlink:href="#r0"/><use x="17" y="125" xlink:href="#r0"/><use x="41" y="125" xlink:href="#r0"/><use x="49" y="125" xlink:href="#r0"/><use x="57" y="125" xlink:href="#r0"/><use x="73" y="125" xlink:href="#r0"/><use x="77" y="125" xlink:href="#r0"/><use x="81" y="125" xlink:href="#r0"/><use x="93" y="125" xlink:href="#r0"/><use x="97" y="125" xlink:href="#r0"/><use x="101" y="125" xlink:href="#r0"/><use x="105" y="125" xlink:href="#r0"/><use x="109" y="125" xlink:href="#r0"/><use x="113" y="125" xlink:href="#r0"/><use x="117" y="125" xlink:href="#r0"/><use x="125" y="125" xlink:href="#r0"/><use x="17" y="129" xlink:href="#r0"/><use x="21" y="129" xlink:href="#r0"/><use x="25" y="129" xlink:href="#r0"/><use x="29" y="129" xlink:href="#r0"/><use x="33" y="129" xlink:href="#r0"/><use x="37" y="129" xlink:href="#r0"/><use x="41" y="129" xlink:href="#r0"/><use x="49" y="129" xlink:href="#r0"/><use x="53" y="129" xlink:href="#r0"/><use x="65" y="129" xlink:href="#r0"/><use x="69" y="129" xlink:href="#r0"/><use x="73" y="129" xlink:href="#r0"/><use x="85" y="129" xlink:href="#r0"/><use x="93" y="129" xlink:href="#r0"/><use x="113" y="129" xlink:href="#r0"/><use x="121" y="129" xlink:href="#r0"/></svg>
