<?xml version="1.0" encoding="UTF-8"?>
<svg xmlns="http://www.w3.org/2000/svg" xmlns:xlink="http://www.w3.org/1999/xlink" version="1.1" width="150px" height="150px" viewBox="0 0 150 150"><defs><rect id="r0" width="5" height="5" fill="#000000"/></defs><rect x="0" y="0" width="150" height="150" fill="#fefefe"/><use x="22" y="22" xlink:href="#r0"/><use x="27" y="22" xlink:href="#r0"/><use x="32" y="22" xlink:href="#r0"/><use x="37" y="22" xlink:href="#r0"/><use x="42" y="22" xlink:href="#r0"/><use x="47" y="22" xlink:href="#r0"/><use x="52" y="22" xlink:href="#r0"/><use x="62" y="22" xlink:href="#r0"/><use x="67" y="22" xlink:href="#r0"/><use x="82" y="22" xlink:href="#r0"/><use x="92" y="22" xlink:href="#r0"/><use x="97" y="22" xlink:href="#r0"/><use x="102" y="22" xlink:href="#r0"/><use x="107" y="22" xlink:href="#r0"/><use x="112" y="22" xlink:href="#r0"/><use x="117" y="22" xlink:href="#r0"/><use x="122" y="22" xlink:href="#r0"/><use x="22" y="27" xlink:href="#r0"/><use x="52" y="27" xlink:href="#r0"/><use x="67" y="27" xlink:href="#r0"/><use x="82" y="27" xlink:href="#r0"/><use x="92" y="27" xlink:href="#r0"/><use x="122" y="27" xlink:href="#r0"/><use x="22" y="32" xlink:href="#r0"/><use x="32" y="32" xlink:href="#r0"/><use x="37" y="32" xlink:href="#r0"/><use x="42" y="32" xlink:href="#r0"/><use x="52" y="32" xlink:href="#r0"/><use x="62" y="32" xlink:href="#r0"/><use x="72" y="32" xlink:href="#r0"/><use x="82" y="32" xlink:href="#r0"/><use x="92" y="32" xlink:href="#r0"/><use x="102" y="32" xlink:href="#r0"/><use x="107" y="32" xlink:href="#r0"/><use x="112" y="32" xlink:href="#r0"/><use x="122" y="32" xlink:href="#r0"/><use x="22" y="37" xlink:href="#r0"/><use x="32" y="37" xlink:href="#r0"/><use x="37" y="37" xlink:href="#r0"/><use x="42" y="37" xlink:href="#r0"/><use x="52" y="37" xlink:href="#r0"/><use x="62" y="37" xlink:href="#r0"/><use x="77" y="37" xlink:href="#r0"/><use x="92" y="37" xlink:href="#r0"/><use x="102" y="37" xlink:href="#r0"/><use x="107" y="37" xlink:href="#r0"/><use x="112" y="37" xlink:href="#r0"/><use x="122" y="37" xlink:href="#r0"/><use x="22" y="42" xlink:href="#r0"/><use x="32" y="42" xlink:href="#r0"/><use x="37" y="42" xlink:href="#r0"/><use x="42" y="42" xlink:href="#r0"/><use x="52" y="42" xlink:href="#r0"/><use x="62" y="42" xlink:href="#r0"/><use x="67" y="42" xlink:href="#r0"/><use x="72" y="42" xlink:href="#r0"/><use x="92" y="42" xlink:href="#r0"/><use x="102" y="42" xlink:href="#r0"/><use x="107" y="42" xlink:href="#r0"/><use x="112" y="42" xlink:href="#r0"/><use x="122" y="42" xlink:href="#r0"/><use x="22" y="47" xlink:href="#r0"/><use x="52" y="47" xlink:href="#r0"/><use x="92" y="47" xlink:href="#r0"/><use x="122" y="47" xlink:href="#r0"/><use x="22" y="52" xlink:href="#r0"/><use x="27" y="52" xlink:href="#r0"/><use x="32" y="52" xlink:href="#r0"/><use x="37" y="52" xlink:href="#r0"/><use x="42" y="52" xlink:href="#r0"/><use x="47" y="52" xlink:href="#r0"/><use x="52" y="52" xlink:href="#r0"/><use x="62" y="52" xlink:href="#r0"/><use x="72" y="52" xlink:href="#r0"/><use x="82" y="52" xlink:href="#r0"/><use x="92" y="52" xlink:href="#r0"/><use x="97" y="52" xlink:href="#r0"/><use x="102" y="52" xlink:href="#r0"/><use x="107" y="52" xlink:href="#r0"/><use x="112" y="52" xlink:href="#r0"/><use x="117" y="52" xlink:href="#r0"/><use x="122" y="52" xlink:href="#r0"/><use x="67" y="57" xlink:href="#r0"/><use x="72" y="57" xlink:href="#r0"/><use x="22" y="62" xlink:href="#r0"/><use x="27" y="62" xlink:href="#r0"/><use x="32" y="62" xlink:href="#r0"/><use x="37" y="62" xlink:href="#r0"/><use x="52" y="62" xlink:href="#r0"/><use x="62" y="62" xlink:href="#r0"/><use x="72" y="62" xlink:href="#r0"/><use x="87" y="62" xlink:href="#r0"/><use x="102" y="62" xlink:href="#r0"/><use x="107" y="62" xlink:href="#r0"/><use x="112" y="62" xlink:href="#r0"/><use x="122" y="62" xlink:href="#r0"/><use x="22" y="67" xlink:href="#r0"/><use x="37" y="67" xlink:href="#r0"/><use x="42" y="67" xlink:href="#r0"/><use x="47" y="67" xlink:href="#r0"/><use x="57" y="67" xlink:href="#r0"/><use x="72" y="67" xlink:href="#r0"/><use x="82" y="67" xlink:href="#r0"/><use x="97" y="67" xlink:href="#r0"/><use x="107" y="67" xlink:href="#r0"/><use x="112" y="67" xlink:href="#r0"/><use x="122" y="67" xlink:href="#r0"/><use x="22" y="72" xlink:href="#r0"/><use x="32" y="72" xlink:href="#r0"/><use x="42" y="72" xlink:href="#r0"/><use x="47" y="72" xlink:href="#r0"/><use x="52" y="72" xlink:href="#r0"/><use x="72" y="72" xlink:href="#r0"/><use x="82" y="72" xlink:href="#r0"/><use x="87" y="72" xlink:href="#r0"/><use x="92" y="72" xlink:href="#r0"/><use x="97" y="72" xlink:href="#r0"/><use x="102" y="72" xlink:href="#r0"/><use x="117" y="72" xlink:href="#r0"/><use x="122" y="72" xlink:href="#r0"/><use x="22" y="77" xlink:href="#r0"/><use x="32" y="77" xlink:href="#r0"/><use x="37" y="77" xlink:href="#r0"/><use x="57" y="77" xlink:href="#r0"/><use x="62" y="77" xlink:href="#r0"/><use x="72" y="77" xlink:href="#r0"/><use x="82" y="77" xlink:href="#r0"/><use x="87" y="77" xlink:href="#r0"/><use x="107" y="77" xlink:href="#r0"/><use x="117" y="77" xlink:href="#r0"/><use x="27" y="82" xlink:href="#r0"/><use x="32" y="82" xlink:href="#r0"/><use x="42" y="82" xlink:href="#r0"/><use x="52" y="82" xlink:href="#r0"/><use x="67" y="82" xlink:href="#r0"/><use x="72" y="82" xlink:href="#r0"/><use x="77" y="82" xlink:href="#r0"/><use x="87" y="82" xlink:href="#r0"/><use x="102" y="82" xlink:href="#r0"/><use x="107" y="82" xlink:href="#r0"/><use x="117" y="82" xlink:href="#r0"/><use x="62" y="87" xlink:href="#r0"/><use x="72" y="87" xlink:href="#r0"/><use x="87" y="87" xlink:href="#r0"/><use x="97" y="87" xlink:href="#r0"/><use x="107" y="87" xlink:href="#r0"/><use x="117" y="87" xlink:href="#r0"/><use x="22" y="92" xlink:href="#r0"/><use x="27" y="92" xlink:href="#r0"/><use x="32" y="92" xlink:href="#r0"/><use x="37" y="92" xlink:href="#r0"/><use x="42" y="92" xlink:href="#r0"/><use x="47" y="92" xlink:href="#r0"/><use x="52" y="92" xlink:href="#r0"/><use x="72" y="92" xlink:href="#r0"/><use x="87" y="92" xlink:href="#r0"/><use x="92" y="92" xlink:href="#r0"/><use x="102" y="92" xlink:href="#r0"/><use x="107" y="92" xlink:href="#r0"/><use x="112" y="92" xlink:href="#r0"/><use x="22" y="97" xlink:href="#r0"/><use x="52" y="97" xlink:href="#r0"/><use x="67" y="97" xlink:href="#r0"/><use x="77" y="97" xlink:href="#r0"/><use x="82" y="97" xlink:href="#r0"/><use x="87" y="97" xlink:href="#r0"/><use x="92" y="97" xlink:href="#r0"/><use x="107" y="97" xlink:href="#r0"/><use x="112" y="97" xlink:href="#r0"/><use x="22" y="102" xlink:href="#r0"/><use x="32" y="102" xlink:href="#r0"/><use x="37" y="102" xlink:href="#r0"/><use x="42" y="102" xlink:href="#r0"/><use x="52" y="102" xlink:href="#r0"/><use x="67" y="102" xlink:href="#r0"/><use x="72" y="102" xlink:href="#r0"/><use x="77" y="102" xlink:href="#r0"/><use x="92" y="102" xlink:href="#r0"/><use x="112" y="102" xlink:href="#r0"/><use x="117" y="102" xlink:href="#r0"/><use x="122" y="102" xlink:href="#r0"/><use x="22" y="107" xlink:href="#r0"/><use x="32" y="107" xlink:href="#r0"/><use x="37" y="107" xlink:href="#r0"/><use x="42" y="107" xlink:href="#r0"/><use x="52" y="107" xlink:href="#r0"/><use x="62" y="107" xlink:href="#r0"/><use x="67" y="107" xlink:href="#r0"/><use x="87" y="107" xlink:href="#r0"/><use x="102" y="107" xlink:href="#r0"/><use x="107" y="107" xlink:href="#r0"/><use x="117" y="107" xlink:href="#r0"/><use x="22" y="112" xlink:href="#r0"/><use x="32" y="112" xlink:href="#r0"/><use x="37" y="112" xlink:href="#r0"/><use x="42" y="112" xlink:href="#r0"/><use x="52" y="112" xlink:href="#r0"/><use x="62" y="112" xlink:href="#r0"/><use x="72" y="112" xlink:href="#r0"/><use x="77" y="112" xlink:href="#r0"/><use x="87" y="112" xlink:href="#r0"/><use x="102" y="112" xlink:href="#r0"/><use x="112" y="112" xlink:href="#r0"/><use x="22" y="117" xlink:href="#r0"/><use x="52" y="117" xlink:href="#r0"/><use x="62" y="117" xlink:href="#r0"/><use x="67" y="117" xlink:href="#r0"/><use x="72" y="117" xlink:href="#r0"/><use x="77" y="117" xlink:href="#r0"/><use x="82" y="117" xlink:href="#r0"/><use x="92" y="117" xlink:href="#r0"/><use x="102" y="117" xlink:href="#r0"/><use x="107" y="117" xlink:href="#r0"/><use x="122" y="117" xlink:href="#r0"/><use x="22" y="122" xlink:href="#r0"/><use x="27" y="122" xlink:href="#r0"/><use x="32" y="122" xlink:href="#r0"/><use x="37" y="122" xlink:href="#r0"/><use x="42" y="122" xlink:href="#r0"/><use x="47" y="122" xlink:href="#r0"/><use x="52" y="122" xlink:href="#r0"/><use x="62" y="122" xlink:href="#r0"/><use x="67" y="122" xlink:href="#r0"/><use x="77" y="122" xlink:href="#r0"/><use x="82" y="122" xlink:href="#r0"/><use x="97" y="122" xlink:href="#r0"/></svg>
